<?xml version="1.0" encoding="UTF-8"?>
<?xml-stylesheet href="https://cdnjs.cloudflare.com/ajax/libs/font-awesome/6.6.0/css/all.min.css" type="text/css"?>
<svg aria-roledescription="er" role="graphics-document document" style="overflow: hidden; max-width: 100%;" xmlns="http://www.w3.org/2000/svg" width="100%" id="graph-div" height="100%" xmlns:xlink="http://www.w3.org/1999/xlink" xmlns:ev="http://www.w3.org/2001/xml-events"><defs><marker orient="auto" markerHeight="240" markerWidth="190" refY="7" refX="0" id="MD_PARENT_START"><path d="M 18,7 L9,13 L1,7 L9,1 Z"></path></marker><style id="svg-pan-zoom-controls-styles" type="text/css">.svg-pan-zoom-control { cursor: pointer; fill: black; fill-opacity: 0.333; } .svg-pan-zoom-control:hover { fill-opacity: 0.8; } .svg-pan-zoom-control-background { fill: white; fill-opacity: 0.5; } .svg-pan-zoom-control-background { fill-opacity: 0.8; }</style></defs><defs><marker orient="auto" markerHeight="28" markerWidth="20" refY="7" refX="19" id="MD_PARENT_END"><path d="M 18,7 L9,13 L1,7 L9,1 Z"></path></marker></defs><defs><marker orient="auto" markerHeight="18" markerWidth="18" refY="9" refX="0" id="ONLY_ONE_START"><path d="M9,0 L9,18 M15,0 L15,18" fill="none" stroke="gray"></path></marker></defs><defs><marker orient="auto" markerHeight="18" markerWidth="18" refY="9" refX="18" id="ONLY_ONE_END"><path d="M3,0 L3,18 M9,0 L9,18" fill="none" stroke="gray"></path></marker></defs><defs><marker orient="auto" markerHeight="18" markerWidth="30" refY="9" refX="0" id="ZERO_OR_ONE_START"><circle r="6" cy="9" cx="21" fill="white" stroke="gray"></circle><path d="M9,0 L9,18" fill="none" stroke="gray"></path></marker></defs><defs><marker orient="auto" markerHeight="18" markerWidth="30" refY="9" refX="30" id="ZERO_OR_ONE_END"><circle r="6" cy="9" cx="9" fill="white" stroke="gray"></circle><path d="M21,0 L21,18" fill="none" stroke="gray"></path></marker></defs><defs><marker orient="auto" markerHeight="36" markerWidth="45" refY="18" refX="18" id="ONE_OR_MORE_START"><path d="M0,18 Q 18,0 36,18 Q 18,36 0,18 M42,9 L42,27" fill="none" stroke="gray"></path></marker></defs><defs><marker orient="auto" markerHeight="36" markerWidth="45" refY="18" refX="27" id="ONE_OR_MORE_END"><path d="M3,9 L3,27 M9,18 Q27,0 45,18 Q27,36 9,18" fill="none" stroke="gray"></path></marker></defs><defs><marker orient="auto" markerHeight="36" markerWidth="57" refY="18" refX="18" id="ZERO_OR_MORE_START"><circle r="6" cy="18" cx="48" fill="white" stroke="gray"></circle><path d="M0,18 Q18,0 36,18 Q18,36 0,18" fill="none" stroke="gray"></path></marker></defs><defs><marker orient="auto" markerHeight="36" markerWidth="57" refY="18" refX="39" id="ZERO_OR_MORE_END"><circle r="6" cy="18" cx="9" fill="white" stroke="gray"></circle><path d="M21,18 Q39,0 57,18 Q39,36 21,18" fill="none" stroke="gray"></path></marker></defs><g id="viewport-20250127103225531" class="svg-pan-zoom_viewport" transform="matrix(0.6570155902004454,0,0,0.6570155902004454,206.41714226057906,0)" style="transform: matrix(0.657016, 0, 0, 0.657016, 206.417, 0);"><style>#graph-div{font-family:"trebuchet ms",verdana,arial,sans-serif;font-size:16px;fill:#333;}#graph-div .error-icon{fill:#552222;}#graph-div .error-text{fill:#552222;stroke:#552222;}#graph-div .edge-thickness-normal{stroke-width:1px;}#graph-div .edge-thickness-thick{stroke-width:3.5px;}#graph-div .edge-pattern-solid{stroke-dasharray:0;}#graph-div .edge-thickness-invisible{stroke-width:0;fill:none;}#graph-div .edge-pattern-dashed{stroke-dasharray:3;}#graph-div .edge-pattern-dotted{stroke-dasharray:2;}#graph-div .marker{fill:#333333;stroke:#333333;}#graph-div .marker.cross{stroke:#333333;}#graph-div svg{font-family:"trebuchet ms",verdana,arial,sans-serif;font-size:16px;}#graph-div p{margin:0;}#graph-div .entityBox{fill:#ECECFF;stroke:#9370DB;}#graph-div .attributeBoxOdd{fill:#ffffff;stroke:#9370DB;}#graph-div .attributeBoxEven{fill:#f2f2f2;stroke:#9370DB;}#graph-div .relationshipLabelBox{fill:hsl(80, 100%, 96.2745098039%);opacity:0.7;background-color:hsl(80, 100%, 96.2745098039%);}#graph-div .relationshipLabelBox rect{opacity:0.5;}#graph-div .relationshipLine{stroke:#333333;}#graph-div .entityTitleText{text-anchor:middle;font-size:18px;fill:#333;}#graph-div #MD_PARENT_START{fill:#f5f5f5!important;stroke:#333333!important;stroke-width:1;}#graph-div #MD_PARENT_END{fill:#f5f5f5!important;stroke:#333333!important;stroke-width:1;}#graph-div :root{--mermaid-font-family:"trebuchet ms",verdana,arial,sans-serif;}</style><g></g><path style="stroke: gray; fill: none;" marker-start="url(#ONLY_ONE_START)" marker-end="url(#ZERO_OR_MORE_END)" d="M253.18,110L253.18,118.333C253.18,126.667,253.18,143.333,253.18,160C253.18,176.667,253.18,193.333,253.18,201.667L253.18,210" class="er relationshipLine"></path><path style="stroke: gray; fill: none;" marker-start="url(#ONLY_ONE_START)" marker-end="url(#ZERO_OR_MORE_END)" d="M241.14,344L239.642,352.333C238.144,360.667,235.149,377.333,233.652,394C232.154,410.667,232.154,427.333,232.154,435.667L232.154,444" class="er relationshipLine"></path><path style="stroke: gray; fill: none;" marker-start="url(#ONLY_ONE_START)" marker-end="url(#ZERO_OR_MORE_END)" d="M184.293,314.212L159.676,327.51C135.059,340.808,85.824,367.404,61.207,405.702C36.59,444,36.59,494,36.59,544C36.59,594,36.59,644,40.151,677.333C43.712,710.667,50.835,727.333,54.396,735.667L57.957,744" class="er relationshipLine"></path><path style="stroke: gray; fill: none;" marker-start="url(#ONLY_ONE_START)" marker-end="url(#ZERO_OR_MORE_END)" d="M179.505,644L175.117,652.333C170.73,660.667,161.955,677.333,152.824,694C143.694,710.667,134.208,727.333,129.465,735.667L124.722,744" class="er relationshipLine"></path><path style="stroke: gray; fill: none;" marker-start="url(#ONLY_ONE_START)" marker-end="url(#ZERO_OR_MORE_END)" d="M246.171,644L247.339,652.333C248.507,660.667,250.844,677.333,259.608,694C268.372,710.667,283.565,727.333,291.161,735.667L298.758,744" class="er relationshipLine"></path><path style="stroke: gray; fill: none;" marker-start="url(#ONLY_ONE_START)" marker-end="url(#ZERO_OR_MORE_END)" d="M322.066,323.523L339.459,335.269C356.852,347.015,391.637,370.508,409.029,407.254C426.422,444,426.422,494,426.422,544C426.422,594,426.422,644,421.679,677.333C416.936,710.667,407.45,727.333,402.708,735.667L397.965,744" class="er relationshipLine"></path><path style="stroke: gray; fill: none;" marker-start="url(#ONE_OR_MORE_START)" marker-end="url(#ZERO_OR_MORE_END)" d="M305.396,581.334L342.234,600.112C379.072,618.89,452.747,656.445,496.141,685.389C539.536,714.333,552.65,734.667,559.208,744.833L565.765,755" class="er relationshipLine"></path><path style="stroke: gray; fill: none;" marker-start="url(#ONE_OR_MORE_START)" marker-end="url(#ZERO_OR_MORE_END)" d="M305.396,570.454L362.405,591.045C419.413,611.636,533.43,652.818,586.479,683.576C639.529,714.333,631.61,734.667,627.651,744.833L623.691,755" class="er relationshipLine"></path><g transform="translate(186.58984375,20 )" id="entity-Company-4e21dbbb-c9c4-54f1-b143-0dbaa987d0dc"><rect height="90" width="133.1796875" y="0" x="0" class="er entityBox"></rect><text transform="translate(66.58984375,12)" style="dominant-baseline: middle; text-anchor: middle; font-size: 12px;" y="0" x="0" id="text-entity-Company-4e21dbbb-c9c4-54f1-b143-0dbaa987d0dc" class="er entityLabel">Company</text><rect height="22" width="51.6328125" y="24" x="0" class="er attributeBoxOdd"></rect><text transform="translate(5,35)" style="dominant-baseline: middle; font-size: 10.2px;" y="0" x="0" id="text-entity-Company-4e21dbbb-c9c4-54f1-b143-0dbaa987d0dc-attr-1-type" class="er entityLabel">int</text><rect height="22" width="59.984375" y="24" x="51.6328125" class="er attributeBoxOdd"></rect><text transform="translate(56.6328125,35)" style="dominant-baseline: middle; font-size: 10.2px;" y="0" x="0" id="text-entity-Company-4e21dbbb-c9c4-54f1-b143-0dbaa987d0dc-attr-1-name" class="er entityLabel">id</text><rect height="22" width="21.5625" y="24" x="111.6171875" class="er attributeBoxOdd"></rect><text transform="translate(116.6171875,35)" style="dominant-baseline: middle; font-size: 10.2px;" y="0" x="0" id="text-entity-Company-4e21dbbb-c9c4-54f1-b143-0dbaa987d0dc-attr-1-key" class="er entityLabel">PK</text><rect height="22" width="51.6328125" y="46" x="0" class="er attributeBoxEven"></rect><text transform="translate(5,57)" style="dominant-baseline: middle; font-size: 10.2px;" y="0" x="0" id="text-entity-Company-4e21dbbb-c9c4-54f1-b143-0dbaa987d0dc-attr-2-type" class="er entityLabel">string</text><rect height="22" width="59.984375" y="46" x="51.6328125" class="er attributeBoxEven"></rect><text transform="translate(56.6328125,57)" style="dominant-baseline: middle; font-size: 10.2px;" y="0" x="0" id="text-entity-Company-4e21dbbb-c9c4-54f1-b143-0dbaa987d0dc-attr-2-name" class="er entityLabel">name</text><rect height="22" width="21.5625" y="46" x="111.6171875" class="er attributeBoxEven"></rect><text transform="translate(116.6171875,57)" style="dominant-baseline: middle; font-size: 10.2px;" y="0" x="0" id="text-entity-Company-4e21dbbb-c9c4-54f1-b143-0dbaa987d0dc-attr-2-key" class="er entityLabel"></text><rect height="22" width="51.6328125" y="68" x="0" class="er attributeBoxOdd"></rect><text transform="translate(5,79)" style="dominant-baseline: middle; font-size: 10.2px;" y="0" x="0" id="text-entity-Company-4e21dbbb-c9c4-54f1-b143-0dbaa987d0dc-attr-3-type" class="er entityLabel">datetime</text><rect height="22" width="59.984375" y="68" x="51.6328125" class="er attributeBoxOdd"></rect><text transform="translate(56.6328125,79)" style="dominant-baseline: middle; font-size: 10.2px;" y="0" x="0" id="text-entity-Company-4e21dbbb-c9c4-54f1-b143-0dbaa987d0dc-attr-3-name" class="er entityLabel">created_at</text><rect height="22" width="21.5625" y="68" x="111.6171875" class="er attributeBoxOdd"></rect><text transform="translate(116.6171875,79)" style="dominant-baseline: middle; font-size: 10.2px;" y="0" x="0" id="text-entity-Company-4e21dbbb-c9c4-54f1-b143-0dbaa987d0dc-attr-3-key" class="er entityLabel"></text></g><g transform="translate(184.29296875,210 )" id="entity-User-818c511a-4a32-5484-ba70-875d765a9175"><rect height="134" width="137.7734375" y="0" x="0" class="er entityBox"></rect><text transform="translate(68.88671875,12)" style="dominant-baseline: middle; text-anchor: middle; font-size: 12px;" y="0" x="0" id="text-entity-User-818c511a-4a32-5484-ba70-875d765a9175" class="er entityLabel">User</text><rect height="22" width="51.6328125" y="24" x="0" class="er attributeBoxOdd"></rect><text transform="translate(5,35)" style="dominant-baseline: middle; font-size: 10.2px;" y="0" x="0" id="text-entity-User-818c511a-4a32-5484-ba70-875d765a9175-attr-1-type" class="er entityLabel">int</text><rect height="22" width="64.578125" y="24" x="51.6328125" class="er attributeBoxOdd"></rect><text transform="translate(56.6328125,35)" style="dominant-baseline: middle; font-size: 10.2px;" y="0" x="0" id="text-entity-User-818c511a-4a32-5484-ba70-875d765a9175-attr-1-name" class="er entityLabel">id</text><rect height="22" width="21.5625" y="24" x="116.2109375" class="er attributeBoxOdd"></rect><text transform="translate(121.2109375,35)" style="dominant-baseline: middle; font-size: 10.2px;" y="0" x="0" id="text-entity-User-818c511a-4a32-5484-ba70-875d765a9175-attr-1-key" class="er entityLabel">PK</text><rect height="22" width="51.6328125" y="46" x="0" class="er attributeBoxEven"></rect><text transform="translate(5,57)" style="dominant-baseline: middle; font-size: 10.2px;" y="0" x="0" id="text-entity-User-818c511a-4a32-5484-ba70-875d765a9175-attr-2-type" class="er entityLabel">int</text><rect height="22" width="64.578125" y="46" x="51.6328125" class="er attributeBoxEven"></rect><text transform="translate(56.6328125,57)" style="dominant-baseline: middle; font-size: 10.2px;" y="0" x="0" id="text-entity-User-818c511a-4a32-5484-ba70-875d765a9175-attr-2-name" class="er entityLabel">company_id</text><rect height="22" width="21.5625" y="46" x="116.2109375" class="er attributeBoxEven"></rect><text transform="translate(121.2109375,57)" style="dominant-baseline: middle; font-size: 10.2px;" y="0" x="0" id="text-entity-User-818c511a-4a32-5484-ba70-875d765a9175-attr-2-key" class="er entityLabel">FK</text><rect height="22" width="51.6328125" y="68" x="0" class="er attributeBoxOdd"></rect><text transform="translate(5,79)" style="dominant-baseline: middle; font-size: 10.2px;" y="0" x="0" id="text-entity-User-818c511a-4a32-5484-ba70-875d765a9175-attr-3-type" class="er entityLabel">string</text><rect height="22" width="64.578125" y="68" x="51.6328125" class="er attributeBoxOdd"></rect><text transform="translate(56.6328125,79)" style="dominant-baseline: middle; font-size: 10.2px;" y="0" x="0" id="text-entity-User-818c511a-4a32-5484-ba70-875d765a9175-attr-3-name" class="er entityLabel">name</text><rect height="22" width="21.5625" y="68" x="116.2109375" class="er attributeBoxOdd"></rect><text transform="translate(121.2109375,79)" style="dominant-baseline: middle; font-size: 10.2px;" y="0" x="0" id="text-entity-User-818c511a-4a32-5484-ba70-875d765a9175-attr-3-key" class="er entityLabel"></text><rect height="22" width="51.6328125" y="90" x="0" class="er attributeBoxEven"></rect><text transform="translate(5,101)" style="dominant-baseline: middle; font-size: 10.2px;" y="0" x="0" id="text-entity-User-818c511a-4a32-5484-ba70-875d765a9175-attr-4-type" class="er entityLabel">string</text><rect height="22" width="64.578125" y="90" x="51.6328125" class="er attributeBoxEven"></rect><text transform="translate(56.6328125,101)" style="dominant-baseline: middle; font-size: 10.2px;" y="0" x="0" id="text-entity-User-818c511a-4a32-5484-ba70-875d765a9175-attr-4-name" class="er entityLabel">email</text><rect height="22" width="21.5625" y="90" x="116.2109375" class="er attributeBoxEven"></rect><text transform="translate(121.2109375,101)" style="dominant-baseline: middle; font-size: 10.2px;" y="0" x="0" id="text-entity-User-818c511a-4a32-5484-ba70-875d765a9175-attr-4-key" class="er entityLabel"></text><rect height="22" width="51.6328125" y="112" x="0" class="er attributeBoxOdd"></rect><text transform="translate(5,123)" style="dominant-baseline: middle; font-size: 10.2px;" y="0" x="0" id="text-entity-User-818c511a-4a32-5484-ba70-875d765a9175-attr-5-type" class="er entityLabel">datetime</text><rect height="22" width="64.578125" y="112" x="51.6328125" class="er attributeBoxOdd"></rect><text transform="translate(56.6328125,123)" style="dominant-baseline: middle; font-size: 10.2px;" y="0" x="0" id="text-entity-User-818c511a-4a32-5484-ba70-875d765a9175-attr-5-name" class="er entityLabel">created_at</text><rect height="22" width="21.5625" y="112" x="116.2109375" class="er attributeBoxOdd"></rect><text transform="translate(121.2109375,123)" style="dominant-baseline: middle; font-size: 10.2px;" y="0" x="0" id="text-entity-User-818c511a-4a32-5484-ba70-875d765a9175-attr-5-key" class="er entityLabel"></text></g><g transform="translate(158.912109375,444 )" id="entity-Task-48d7b74a-e47a-5efe-8103-e90c35d0bbcd"><rect height="200" width="146.484375" y="0" x="0" class="er entityBox"></rect><text transform="translate(73.2421875,12)" style="dominant-baseline: middle; text-anchor: middle; font-size: 12px;" y="0" x="0" id="text-entity-Task-48d7b74a-e47a-5efe-8103-e90c35d0bbcd" class="er entityLabel">Task</text><rect height="22" width="51.6328125" y="24" x="0" class="er attributeBoxOdd"></rect><text transform="translate(5,35)" style="dominant-baseline: middle; font-size: 10.2px;" y="0" x="0" id="text-entity-Task-48d7b74a-e47a-5efe-8103-e90c35d0bbcd-attr-1-type" class="er entityLabel">int</text><rect height="22" width="73.2890625" y="24" x="51.6328125" class="er attributeBoxOdd"></rect><text transform="translate(56.6328125,35)" style="dominant-baseline: middle; font-size: 10.2px;" y="0" x="0" id="text-entity-Task-48d7b74a-e47a-5efe-8103-e90c35d0bbcd-attr-1-name" class="er entityLabel">id</text><rect height="22" width="21.5625" y="24" x="124.921875" class="er attributeBoxOdd"></rect><text transform="translate(129.921875,35)" style="dominant-baseline: middle; font-size: 10.2px;" y="0" x="0" id="text-entity-Task-48d7b74a-e47a-5efe-8103-e90c35d0bbcd-attr-1-key" class="er entityLabel">PK</text><rect height="22" width="51.6328125" y="46" x="0" class="er attributeBoxEven"></rect><text transform="translate(5,57)" style="dominant-baseline: middle; font-size: 10.2px;" y="0" x="0" id="text-entity-Task-48d7b74a-e47a-5efe-8103-e90c35d0bbcd-attr-2-type" class="er entityLabel">int</text><rect height="22" width="73.2890625" y="46" x="51.6328125" class="er attributeBoxEven"></rect><text transform="translate(56.6328125,57)" style="dominant-baseline: middle; font-size: 10.2px;" y="0" x="0" id="text-entity-Task-48d7b74a-e47a-5efe-8103-e90c35d0bbcd-attr-2-name" class="er entityLabel">creator_id</text><rect height="22" width="21.5625" y="46" x="124.921875" class="er attributeBoxEven"></rect><text transform="translate(129.921875,57)" style="dominant-baseline: middle; font-size: 10.2px;" y="0" x="0" id="text-entity-Task-48d7b74a-e47a-5efe-8103-e90c35d0bbcd-attr-2-key" class="er entityLabel">FK</text><rect height="22" width="51.6328125" y="68" x="0" class="er attributeBoxOdd"></rect><text transform="translate(5,79)" style="dominant-baseline: middle; font-size: 10.2px;" y="0" x="0" id="text-entity-Task-48d7b74a-e47a-5efe-8103-e90c35d0bbcd-attr-3-type" class="er entityLabel">string</text><rect height="22" width="73.2890625" y="68" x="51.6328125" class="er attributeBoxOdd"></rect><text transform="translate(56.6328125,79)" style="dominant-baseline: middle; font-size: 10.2px;" y="0" x="0" id="text-entity-Task-48d7b74a-e47a-5efe-8103-e90c35d0bbcd-attr-3-name" class="er entityLabel">title</text><rect height="22" width="21.5625" y="68" x="124.921875" class="er attributeBoxOdd"></rect><text transform="translate(129.921875,79)" style="dominant-baseline: middle; font-size: 10.2px;" y="0" x="0" id="text-entity-Task-48d7b74a-e47a-5efe-8103-e90c35d0bbcd-attr-3-key" class="er entityLabel"></text><rect height="22" width="51.6328125" y="90" x="0" class="er attributeBoxEven"></rect><text transform="translate(5,101)" style="dominant-baseline: middle; font-size: 10.2px;" y="0" x="0" id="text-entity-Task-48d7b74a-e47a-5efe-8103-e90c35d0bbcd-attr-4-type" class="er entityLabel">text</text><rect height="22" width="73.2890625" y="90" x="51.6328125" class="er attributeBoxEven"></rect><text transform="translate(56.6328125,101)" style="dominant-baseline: middle; font-size: 10.2px;" y="0" x="0" id="text-entity-Task-48d7b74a-e47a-5efe-8103-e90c35d0bbcd-attr-4-name" class="er entityLabel">description</text><rect height="22" width="21.5625" y="90" x="124.921875" class="er attributeBoxEven"></rect><text transform="translate(129.921875,101)" style="dominant-baseline: middle; font-size: 10.2px;" y="0" x="0" id="text-entity-Task-48d7b74a-e47a-5efe-8103-e90c35d0bbcd-attr-4-key" class="er entityLabel"></text><rect height="22" width="51.6328125" y="112" x="0" class="er attributeBoxOdd"></rect><text transform="translate(5,123)" style="dominant-baseline: middle; font-size: 10.2px;" y="0" x="0" id="text-entity-Task-48d7b74a-e47a-5efe-8103-e90c35d0bbcd-attr-5-type" class="er entityLabel">datetime</text><rect height="22" width="73.2890625" y="112" x="51.6328125" class="er attributeBoxOdd"></rect><text transform="translate(56.6328125,123)" style="dominant-baseline: middle; font-size: 10.2px;" y="0" x="0" id="text-entity-Task-48d7b74a-e47a-5efe-8103-e90c35d0bbcd-attr-5-name" class="er entityLabel">created_at</text><rect height="22" width="21.5625" y="112" x="124.921875" class="er attributeBoxOdd"></rect><text transform="translate(129.921875,123)" style="dominant-baseline: middle; font-size: 10.2px;" y="0" x="0" id="text-entity-Task-48d7b74a-e47a-5efe-8103-e90c35d0bbcd-attr-5-key" class="er entityLabel"></text><rect height="22" width="51.6328125" y="134" x="0" class="er attributeBoxEven"></rect><text transform="translate(5,145)" style="dominant-baseline: middle; font-size: 10.2px;" y="0" x="0" id="text-entity-Task-48d7b74a-e47a-5efe-8103-e90c35d0bbcd-attr-6-type" class="er entityLabel">datetime</text><rect height="22" width="73.2890625" y="134" x="51.6328125" class="er attributeBoxEven"></rect><text transform="translate(56.6328125,145)" style="dominant-baseline: middle; font-size: 10.2px;" y="0" x="0" id="text-entity-Task-48d7b74a-e47a-5efe-8103-e90c35d0bbcd-attr-6-name" class="er entityLabel">deadline</text><rect height="22" width="21.5625" y="134" x="124.921875" class="er attributeBoxEven"></rect><text transform="translate(129.921875,145)" style="dominant-baseline: middle; font-size: 10.2px;" y="0" x="0" id="text-entity-Task-48d7b74a-e47a-5efe-8103-e90c35d0bbcd-attr-6-key" class="er entityLabel"></text><rect height="22" width="51.6328125" y="156" x="0" class="er attributeBoxOdd"></rect><text transform="translate(5,167)" style="dominant-baseline: middle; font-size: 10.2px;" y="0" x="0" id="text-entity-Task-48d7b74a-e47a-5efe-8103-e90c35d0bbcd-attr-7-type" class="er entityLabel">datetime</text><rect height="22" width="73.2890625" y="156" x="51.6328125" class="er attributeBoxOdd"></rect><text transform="translate(56.6328125,167)" style="dominant-baseline: middle; font-size: 10.2px;" y="0" x="0" id="text-entity-Task-48d7b74a-e47a-5efe-8103-e90c35d0bbcd-attr-7-name" class="er entityLabel">completed_at</text><rect height="22" width="21.5625" y="156" x="124.921875" class="er attributeBoxOdd"></rect><text transform="translate(129.921875,167)" style="dominant-baseline: middle; font-size: 10.2px;" y="0" x="0" id="text-entity-Task-48d7b74a-e47a-5efe-8103-e90c35d0bbcd-attr-7-key" class="er entityLabel"></text><rect height="22" width="51.6328125" y="178" x="0" class="er attributeBoxEven"></rect><text transform="translate(5,189)" style="dominant-baseline: middle; font-size: 10.2px;" y="0" x="0" id="text-entity-Task-48d7b74a-e47a-5efe-8103-e90c35d0bbcd-attr-8-type" class="er entityLabel">enum</text><rect height="22" width="73.2890625" y="178" x="51.6328125" class="er attributeBoxEven"></rect><text transform="translate(56.6328125,189)" style="dominant-baseline: middle; font-size: 10.2px;" y="0" x="0" id="text-entity-Task-48d7b74a-e47a-5efe-8103-e90c35d0bbcd-attr-8-name" class="er entityLabel">status</text><rect height="22" width="21.5625" y="178" x="124.921875" class="er attributeBoxEven"></rect><text transform="translate(129.921875,189)" style="dominant-baseline: middle; font-size: 10.2px;" y="0" x="0" id="text-entity-Task-48d7b74a-e47a-5efe-8103-e90c35d0bbcd-attr-8-key" class="er entityLabel"></text></g><g transform="translate(20,744 )" id="entity-Comment-09a819da-2a79-5b7d-8a84-94cec22d9152"><rect height="134" width="133.1796875" y="0" x="0" class="er entityBox"></rect><text transform="translate(66.58984375,12)" style="dominant-baseline: middle; text-anchor: middle; font-size: 12px;" y="0" x="0" id="text-entity-Comment-09a819da-2a79-5b7d-8a84-94cec22d9152" class="er entityLabel">Comment</text><rect height="22" width="51.6328125" y="24" x="0" class="er attributeBoxOdd"></rect><text transform="translate(5,35)" style="dominant-baseline: middle; font-size: 10.2px;" y="0" x="0" id="text-entity-Comment-09a819da-2a79-5b7d-8a84-94cec22d9152-attr-1-type" class="er entityLabel">int</text><rect height="22" width="59.984375" y="24" x="51.6328125" class="er attributeBoxOdd"></rect><text transform="translate(56.6328125,35)" style="dominant-baseline: middle; font-size: 10.2px;" y="0" x="0" id="text-entity-Comment-09a819da-2a79-5b7d-8a84-94cec22d9152-attr-1-name" class="er entityLabel">id</text><rect height="22" width="21.5625" y="24" x="111.6171875" class="er attributeBoxOdd"></rect><text transform="translate(116.6171875,35)" style="dominant-baseline: middle; font-size: 10.2px;" y="0" x="0" id="text-entity-Comment-09a819da-2a79-5b7d-8a84-94cec22d9152-attr-1-key" class="er entityLabel">PK</text><rect height="22" width="51.6328125" y="46" x="0" class="er attributeBoxEven"></rect><text transform="translate(5,57)" style="dominant-baseline: middle; font-size: 10.2px;" y="0" x="0" id="text-entity-Comment-09a819da-2a79-5b7d-8a84-94cec22d9152-attr-2-type" class="er entityLabel">int</text><rect height="22" width="59.984375" y="46" x="51.6328125" class="er attributeBoxEven"></rect><text transform="translate(56.6328125,57)" style="dominant-baseline: middle; font-size: 10.2px;" y="0" x="0" id="text-entity-Comment-09a819da-2a79-5b7d-8a84-94cec22d9152-attr-2-name" class="er entityLabel">task_id</text><rect height="22" width="21.5625" y="46" x="111.6171875" class="er attributeBoxEven"></rect><text transform="translate(116.6171875,57)" style="dominant-baseline: middle; font-size: 10.2px;" y="0" x="0" id="text-entity-Comment-09a819da-2a79-5b7d-8a84-94cec22d9152-attr-2-key" class="er entityLabel">FK</text><rect height="22" width="51.6328125" y="68" x="0" class="er attributeBoxOdd"></rect><text transform="translate(5,79)" style="dominant-baseline: middle; font-size: 10.2px;" y="0" x="0" id="text-entity-Comment-09a819da-2a79-5b7d-8a84-94cec22d9152-attr-3-type" class="er entityLabel">int</text><rect height="22" width="59.984375" y="68" x="51.6328125" class="er attributeBoxOdd"></rect><text transform="translate(56.6328125,79)" style="dominant-baseline: middle; font-size: 10.2px;" y="0" x="0" id="text-entity-Comment-09a819da-2a79-5b7d-8a84-94cec22d9152-attr-3-name" class="er entityLabel">user_id</text><rect height="22" width="21.5625" y="68" x="111.6171875" class="er attributeBoxOdd"></rect><text transform="translate(116.6171875,79)" style="dominant-baseline: middle; font-size: 10.2px;" y="0" x="0" id="text-entity-Comment-09a819da-2a79-5b7d-8a84-94cec22d9152-attr-3-key" class="er entityLabel">FK</text><rect height="22" width="51.6328125" y="90" x="0" class="er attributeBoxEven"></rect><text transform="translate(5,101)" style="dominant-baseline: middle; font-size: 10.2px;" y="0" x="0" id="text-entity-Comment-09a819da-2a79-5b7d-8a84-94cec22d9152-attr-4-type" class="er entityLabel">text</text><rect height="22" width="59.984375" y="90" x="51.6328125" class="er attributeBoxEven"></rect><text transform="translate(56.6328125,101)" style="dominant-baseline: middle; font-size: 10.2px;" y="0" x="0" id="text-entity-Comment-09a819da-2a79-5b7d-8a84-94cec22d9152-attr-4-name" class="er entityLabel">content</text><rect height="22" width="21.5625" y="90" x="111.6171875" class="er attributeBoxEven"></rect><text transform="translate(116.6171875,101)" style="dominant-baseline: middle; font-size: 10.2px;" y="0" x="0" id="text-entity-Comment-09a819da-2a79-5b7d-8a84-94cec22d9152-attr-4-key" class="er entityLabel"></text><rect height="22" width="51.6328125" y="112" x="0" class="er attributeBoxOdd"></rect><text transform="translate(5,123)" style="dominant-baseline: middle; font-size: 10.2px;" y="0" x="0" id="text-entity-Comment-09a819da-2a79-5b7d-8a84-94cec22d9152-attr-5-type" class="er entityLabel">datetime</text><rect height="22" width="59.984375" y="112" x="51.6328125" class="er attributeBoxOdd"></rect><text transform="translate(56.6328125,123)" style="dominant-baseline: middle; font-size: 10.2px;" y="0" x="0" id="text-entity-Comment-09a819da-2a79-5b7d-8a84-94cec22d9152-attr-5-name" class="er entityLabel">created_at</text><rect height="22" width="21.5625" y="112" x="111.6171875" class="er attributeBoxOdd"></rect><text transform="translate(116.6171875,123)" style="dominant-baseline: middle; font-size: 10.2px;" y="0" x="0" id="text-entity-Comment-09a819da-2a79-5b7d-8a84-94cec22d9152-attr-5-key" class="er entityLabel"></text></g><g transform="translate(293.2421875,744 )" id="entity-TaskAssignment-1f48af24-7168-5da4-9424-003b3d34ed12"><rect height="134" width="133.1796875" y="0" x="0" class="er entityBox"></rect><text transform="translate(66.58984375,12)" style="dominant-baseline: middle; text-anchor: middle; font-size: 12px;" y="0" x="0" id="text-entity-TaskAssignment-1f48af24-7168-5da4-9424-003b3d34ed12" class="er entityLabel">TaskAssignment</text><rect height="22" width="51.6328125" y="24" x="0" class="er attributeBoxOdd"></rect><text transform="translate(5,35)" style="dominant-baseline: middle; font-size: 10.2px;" y="0" x="0" id="text-entity-TaskAssignment-1f48af24-7168-5da4-9424-003b3d34ed12-attr-1-type" class="er entityLabel">int</text><rect height="22" width="59.984375" y="24" x="51.6328125" class="er attributeBoxOdd"></rect><text transform="translate(56.6328125,35)" style="dominant-baseline: middle; font-size: 10.2px;" y="0" x="0" id="text-entity-TaskAssignment-1f48af24-7168-5da4-9424-003b3d34ed12-attr-1-name" class="er entityLabel">id</text><rect height="22" width="21.5625" y="24" x="111.6171875" class="er attributeBoxOdd"></rect><text transform="translate(116.6171875,35)" style="dominant-baseline: middle; font-size: 10.2px;" y="0" x="0" id="text-entity-TaskAssignment-1f48af24-7168-5da4-9424-003b3d34ed12-attr-1-key" class="er entityLabel">PK</text><rect height="22" width="51.6328125" y="46" x="0" class="er attributeBoxEven"></rect><text transform="translate(5,57)" style="dominant-baseline: middle; font-size: 10.2px;" y="0" x="0" id="text-entity-TaskAssignment-1f48af24-7168-5da4-9424-003b3d34ed12-attr-2-type" class="er entityLabel">int</text><rect height="22" width="59.984375" y="46" x="51.6328125" class="er attributeBoxEven"></rect><text transform="translate(56.6328125,57)" style="dominant-baseline: middle; font-size: 10.2px;" y="0" x="0" id="text-entity-TaskAssignment-1f48af24-7168-5da4-9424-003b3d34ed12-attr-2-name" class="er entityLabel">task_id</text><rect height="22" width="21.5625" y="46" x="111.6171875" class="er attributeBoxEven"></rect><text transform="translate(116.6171875,57)" style="dominant-baseline: middle; font-size: 10.2px;" y="0" x="0" id="text-entity-TaskAssignment-1f48af24-7168-5da4-9424-003b3d34ed12-attr-2-key" class="er entityLabel">FK</text><rect height="22" width="51.6328125" y="68" x="0" class="er attributeBoxOdd"></rect><text transform="translate(5,79)" style="dominant-baseline: middle; font-size: 10.2px;" y="0" x="0" id="text-entity-TaskAssignment-1f48af24-7168-5da4-9424-003b3d34ed12-attr-3-type" class="er entityLabel">int</text><rect height="22" width="59.984375" y="68" x="51.6328125" class="er attributeBoxOdd"></rect><text transform="translate(56.6328125,79)" style="dominant-baseline: middle; font-size: 10.2px;" y="0" x="0" id="text-entity-TaskAssignment-1f48af24-7168-5da4-9424-003b3d34ed12-attr-3-name" class="er entityLabel">user_id</text><rect height="22" width="21.5625" y="68" x="111.6171875" class="er attributeBoxOdd"></rect><text transform="translate(116.6171875,79)" style="dominant-baseline: middle; font-size: 10.2px;" y="0" x="0" id="text-entity-TaskAssignment-1f48af24-7168-5da4-9424-003b3d34ed12-attr-3-key" class="er entityLabel">FK</text><rect height="22" width="51.6328125" y="90" x="0" class="er attributeBoxEven"></rect><text transform="translate(5,101)" style="dominant-baseline: middle; font-size: 10.2px;" y="0" x="0" id="text-entity-TaskAssignment-1f48af24-7168-5da4-9424-003b3d34ed12-attr-4-type" class="er entityLabel">enum</text><rect height="22" width="59.984375" y="90" x="51.6328125" class="er attributeBoxEven"></rect><text transform="translate(56.6328125,101)" style="dominant-baseline: middle; font-size: 10.2px;" y="0" x="0" id="text-entity-TaskAssignment-1f48af24-7168-5da4-9424-003b3d34ed12-attr-4-name" class="er entityLabel">role</text><rect height="22" width="21.5625" y="90" x="111.6171875" class="er attributeBoxEven"></rect><text transform="translate(116.6171875,101)" style="dominant-baseline: middle; font-size: 10.2px;" y="0" x="0" id="text-entity-TaskAssignment-1f48af24-7168-5da4-9424-003b3d34ed12-attr-4-key" class="er entityLabel"></text><rect height="22" width="51.6328125" y="112" x="0" class="er attributeBoxOdd"></rect><text transform="translate(5,123)" style="dominant-baseline: middle; font-size: 10.2px;" y="0" x="0" id="text-entity-TaskAssignment-1f48af24-7168-5da4-9424-003b3d34ed12-attr-5-type" class="er entityLabel">datetime</text><rect height="22" width="59.984375" y="112" x="51.6328125" class="er attributeBoxOdd"></rect><text transform="translate(56.6328125,123)" style="dominant-baseline: middle; font-size: 10.2px;" y="0" x="0" id="text-entity-TaskAssignment-1f48af24-7168-5da4-9424-003b3d34ed12-attr-5-name" class="er entityLabel">created_at</text><rect height="22" width="21.5625" y="112" x="111.6171875" class="er attributeBoxOdd"></rect><text transform="translate(116.6171875,123)" style="dominant-baseline: middle; font-size: 10.2px;" y="0" x="0" id="text-entity-TaskAssignment-1f48af24-7168-5da4-9424-003b3d34ed12-attr-5-key" class="er entityLabel"></text></g><g transform="translate(526.421875,755 )" id="entity-TaskLink-6c5655fc-8a0f-5b65-a6ed-0e35bc719e27"><rect height="112" width="150.921875" y="0" x="0" class="er entityBox"></rect><text transform="translate(75.4609375,12)" style="dominant-baseline: middle; text-anchor: middle; font-size: 12px;" y="0" x="0" id="text-entity-TaskLink-6c5655fc-8a0f-5b65-a6ed-0e35bc719e27" class="er entityLabel">TaskLink</text><rect height="22" width="51.6328125" y="24" x="0" class="er attributeBoxOdd"></rect><text transform="translate(5,35)" style="dominant-baseline: middle; font-size: 10.2px;" y="0" x="0" id="text-entity-TaskLink-6c5655fc-8a0f-5b65-a6ed-0e35bc719e27-attr-1-type" class="er entityLabel">int</text><rect height="22" width="77.7265625" y="24" x="51.6328125" class="er attributeBoxOdd"></rect><text transform="translate(56.6328125,35)" style="dominant-baseline: middle; font-size: 10.2px;" y="0" x="0" id="text-entity-TaskLink-6c5655fc-8a0f-5b65-a6ed-0e35bc719e27-attr-1-name" class="er entityLabel">id</text><rect height="22" width="21.5625" y="24" x="129.359375" class="er attributeBoxOdd"></rect><text transform="translate(134.359375,35)" style="dominant-baseline: middle; font-size: 10.2px;" y="0" x="0" id="text-entity-TaskLink-6c5655fc-8a0f-5b65-a6ed-0e35bc719e27-attr-1-key" class="er entityLabel">PK</text><rect height="22" width="51.6328125" y="46" x="0" class="er attributeBoxEven"></rect><text transform="translate(5,57)" style="dominant-baseline: middle; font-size: 10.2px;" y="0" x="0" id="text-entity-TaskLink-6c5655fc-8a0f-5b65-a6ed-0e35bc719e27-attr-2-type" class="er entityLabel">int</text><rect height="22" width="77.7265625" y="46" x="51.6328125" class="er attributeBoxEven"></rect><text transform="translate(56.6328125,57)" style="dominant-baseline: middle; font-size: 10.2px;" y="0" x="0" id="text-entity-TaskLink-6c5655fc-8a0f-5b65-a6ed-0e35bc719e27-attr-2-name" class="er entityLabel">source_task_id</text><rect height="22" width="21.5625" y="46" x="129.359375" class="er attributeBoxEven"></rect><text transform="translate(134.359375,57)" style="dominant-baseline: middle; font-size: 10.2px;" y="0" x="0" id="text-entity-TaskLink-6c5655fc-8a0f-5b65-a6ed-0e35bc719e27-attr-2-key" class="er entityLabel">FK</text><rect height="22" width="51.6328125" y="68" x="0" class="er attributeBoxOdd"></rect><text transform="translate(5,79)" style="dominant-baseline: middle; font-size: 10.2px;" y="0" x="0" id="text-entity-TaskLink-6c5655fc-8a0f-5b65-a6ed-0e35bc719e27-attr-3-type" class="er entityLabel">int</text><rect height="22" width="77.7265625" y="68" x="51.6328125" class="er attributeBoxOdd"></rect><text transform="translate(56.6328125,79)" style="dominant-baseline: middle; font-size: 10.2px;" y="0" x="0" id="text-entity-TaskLink-6c5655fc-8a0f-5b65-a6ed-0e35bc719e27-attr-3-name" class="er entityLabel">target_task_id</text><rect height="22" width="21.5625" y="68" x="129.359375" class="er attributeBoxOdd"></rect><text transform="translate(134.359375,79)" style="dominant-baseline: middle; font-size: 10.2px;" y="0" x="0" id="text-entity-TaskLink-6c5655fc-8a0f-5b65-a6ed-0e35bc719e27-attr-3-key" class="er entityLabel">FK</text><rect height="22" width="51.6328125" y="90" x="0" class="er attributeBoxEven"></rect><text transform="translate(5,101)" style="dominant-baseline: middle; font-size: 10.2px;" y="0" x="0" id="text-entity-TaskLink-6c5655fc-8a0f-5b65-a6ed-0e35bc719e27-attr-4-type" class="er entityLabel">datetime</text><rect height="22" width="77.7265625" y="90" x="51.6328125" class="er attributeBoxEven"></rect><text transform="translate(56.6328125,101)" style="dominant-baseline: middle; font-size: 10.2px;" y="0" x="0" id="text-entity-TaskLink-6c5655fc-8a0f-5b65-a6ed-0e35bc719e27-attr-4-name" class="er entityLabel">created_at</text><rect height="22" width="21.5625" y="90" x="129.359375" class="er attributeBoxEven"></rect><text transform="translate(134.359375,101)" style="dominant-baseline: middle; font-size: 10.2px;" y="0" x="0" id="text-entity-TaskLink-6c5655fc-8a0f-5b65-a6ed-0e35bc719e27-attr-4-key" class="er entityLabel"></text></g><rect height="14" width="17.71875" y="153" x="244.32061767578125" class="er relationshipLabelBox"></rect><text style="text-anchor: middle; dominant-baseline: middle; font-size: 12px;" y="160" x="253.17999267578125" id="rel1" class="er relationshipLabel">has</text><rect height="14" width="39.6171875" y="386.7337951660156" x="213.86767578125" class="er relationshipLabelBox"></rect><text style="text-anchor: middle; dominant-baseline: middle; font-size: 12px;" y="393.7337951660156" x="233.67626953125" id="rel2" class="er relationshipLabel">creates</text><rect height="14" width="33.1796875" y="489.6542663574219" x="20.793197631835938" class="er relationshipLabelBox"></rect><text style="text-anchor: middle; dominant-baseline: middle; font-size: 12px;" y="496.6542663574219" x="37.38304138183594" id="rel3" class="er relationshipLabel">writes</text><rect height="14" width="17.71875" y="687.2991943359375" x="143.8003387451172" class="er relationshipLabelBox"></rect><text style="text-anchor: middle; dominant-baseline: middle; font-size: 12px;" y="694.2991943359375" x="152.6597137451172" id="rel4" class="er relationshipLabel">has</text><rect height="14" width="17.71875" y="692.0525512695312" x="253.593017578125" class="er relationshipLabelBox"></rect><text style="text-anchor: middle; dominant-baseline: middle; font-size: 12px;" y="699.0525512695312" x="262.452392578125" id="rel5" class="er relationshipLabel">has</text><rect height="14" width="59.828125" y="508.7747802734375" x="396.39080810546875" class="er relationshipLabelBox"></rect><text style="text-anchor: middle; dominant-baseline: middle; font-size: 12px;" y="515.7747802734375" x="426.30487060546875" id="rel6" class="er relationshipLabel">is_assigned</text><rect height="14" width="57.3046875" y="647.8900146484375" x="417.0196228027344" class="er relationshipLabelBox"></rect><text style="text-anchor: middle; dominant-baseline: middle; font-size: 12px;" y="654.8900146484375" x="445.6719665527344" id="rel7" class="er relationshipLabel">references</text><rect height="14" width="92.6015625" y="632.42041015625" x="444.4377746582031" class="er relationshipLabelBox"></rect><text style="text-anchor: middle; dominant-baseline: middle; font-size: 12px;" y="639.42041015625" x="490.7385559082031" id="rel8" class="er relationshipLabel">is_referenced_by</text></g><g id="svg-pan-zoom-controls" transform="translate(801 514) scale(0.75)" class="svg-pan-zoom-control"><g id="svg-pan-zoom-zoom-in" transform="translate(30.5 5) scale(0.015)" class="svg-pan-zoom-control"><rect x="0" y="0" width="1500" height="1400" class="svg-pan-zoom-control-background"></rect><path d="M1280 576v128q0 26 -19 45t-45 19h-320v320q0 26 -19 45t-45 19h-128q-26 0 -45 -19t-19 -45v-320h-320q-26 0 -45 -19t-19 -45v-128q0 -26 19 -45t45 -19h320v-320q0 -26 19 -45t45 -19h128q26 0 45 19t19 45v320h320q26 0 45 19t19 45zM1536 1120v-960 q0 -119 -84.5 -203.5t-203.5 -84.5h-960q-119 0 -203.5 84.5t-84.5 203.5v960q0 119 84.5 203.5t203.5 84.5h960q119 0 203.5 -84.5t84.5 -203.5z" class="svg-pan-zoom-control-element"></path></g><g id="svg-pan-zoom-reset-pan-zoom" transform="translate(5 35) scale(0.4)" class="svg-pan-zoom-control"><rect x="2" y="2" width="182" height="58" class="svg-pan-zoom-control-background"></rect><path d="M33.051,20.632c-0.742-0.406-1.854-0.609-3.338-0.609h-7.969v9.281h7.769c1.543,0,2.701-0.188,3.473-0.562c1.365-0.656,2.048-1.953,2.048-3.891C35.032,22.757,34.372,21.351,33.051,20.632z" class="svg-pan-zoom-control-element"></path><path d="M170.231,0.5H15.847C7.102,0.5,0.5,5.708,0.5,11.84v38.861C0.5,56.833,7.102,61.5,15.847,61.5h154.384c8.745,0,15.269-4.667,15.269-10.798V11.84C185.5,5.708,178.976,0.5,170.231,0.5z M42.837,48.569h-7.969c-0.219-0.766-0.375-1.383-0.469-1.852c-0.188-0.969-0.289-1.961-0.305-2.977l-0.047-3.211c-0.03-2.203-0.41-3.672-1.142-4.406c-0.732-0.734-2.103-1.102-4.113-1.102h-7.05v13.547h-7.055V14.022h16.524c2.361,0.047,4.178,0.344,5.45,0.891c1.272,0.547,2.351,1.352,3.234,2.414c0.731,0.875,1.31,1.844,1.737,2.906s0.64,2.273,0.64,3.633c0,1.641-0.414,3.254-1.242,4.84s-2.195,2.707-4.102,3.363c1.594,0.641,2.723,1.551,3.387,2.73s0.996,2.98,0.996,5.402v2.32c0,1.578,0.063,2.648,0.19,3.211c0.19,0.891,0.635,1.547,1.333,1.969V48.569z M75.579,48.569h-26.18V14.022h25.336v6.117H56.454v7.336h16.781v6H56.454v8.883h19.125V48.569z M104.497,46.331c-2.44,2.086-5.887,3.129-10.34,3.129c-4.548,0-8.125-1.027-10.731-3.082s-3.909-4.879-3.909-8.473h6.891c0.224,1.578,0.662,2.758,1.316,3.539c1.196,1.422,3.246,2.133,6.15,2.133c1.739,0,3.151-0.188,4.236-0.562c2.058-0.719,3.087-2.055,3.087-4.008c0-1.141-0.504-2.023-1.512-2.648c-1.008-0.609-2.607-1.148-4.796-1.617l-3.74-0.82c-3.676-0.812-6.201-1.695-7.576-2.648c-2.328-1.594-3.492-4.086-3.492-7.477c0-3.094,1.139-5.664,3.417-7.711s5.623-3.07,10.036-3.07c3.685,0,6.829,0.965,9.431,2.895c2.602,1.93,3.966,4.73,4.093,8.402h-6.938c-0.128-2.078-1.057-3.555-2.787-4.43c-1.154-0.578-2.587-0.867-4.301-0.867c-1.907,0-3.428,0.375-4.565,1.125c-1.138,0.75-1.706,1.797-1.706,3.141c0,1.234,0.561,2.156,1.682,2.766c0.721,0.406,2.25,0.883,4.589,1.43l6.063,1.43c2.657,0.625,4.648,1.461,5.975,2.508c2.059,1.625,3.089,3.977,3.089,7.055C108.157,41.624,106.937,44.245,104.497,46.331z M139.61,48.569h-26.18V14.022h25.336v6.117h-18.281v7.336h16.781v6h-16.781v8.883h19.125V48.569z M170.337,20.14h-10.336v28.43h-7.266V20.14h-10.383v-6.117h27.984V20.14z" class="svg-pan-zoom-control-element"></path></g><g id="svg-pan-zoom-zoom-out" transform="translate(30.5 70) scale(0.015)" class="svg-pan-zoom-control"><rect x="0" y="0" width="1500" height="1400" class="svg-pan-zoom-control-background"></rect><path d="M1280 576v128q0 26 -19 45t-45 19h-896q-26 0 -45 -19t-19 -45v-128q0 -26 19 -45t45 -19h896q26 0 45 19t19 45zM1536 1120v-960q0 -119 -84.5 -203.5t-203.5 -84.5h-960q-119 0 -203.5 84.5t-84.5 203.5v960q0 119 84.5 203.5t203.5 84.5h960q119 0 203.5 -84.5 t84.5 -203.5z" class="svg-pan-zoom-control-element"></path></g></g></svg>